<svg width="67" height="76" viewBox="0 0 67 76" fill="none" xmlns="http://www.w3.org/2000/svg">
<path d="M33.459 75.9852L6.09752 68.3893L0 0H67L60.8962 68.3788L33.459 75.9852Z" fill="#B40041"/>
<path d="M55.6706 64.0246L60.8865 5.59167H33.5V70.171L55.6706 64.0246Z" fill="#D0014C"/>
<path d="M13.9783 30.9564L14.73 39.3441H33.5V30.9564H13.9783ZM12.4677 13.9796L13.2301 22.3673H33.5V13.9796H12.4677ZM33.5 52.7401L33.4632 52.7499L24.1219 50.2275L23.5247 43.538H15.1047L16.2798 56.708L33.4614 61.4774L33.5 61.4669V52.7401Z" fill="#292828"/>
<path d="M52.9681 30.9564L54.4822 13.9796H33.4711V22.3673H45.29L44.5268 30.9564H33.4711V39.3441H43.7996L42.8258 50.2223L33.4708 52.7472V61.4734L50.6661 56.708L50.7922 55.2908L52.7635 33.2087L52.9681 30.9564Z" fill="#292828"/>
</svg>
