<svg width="48" height="37" viewBox="0 0 48 37" fill="none" xmlns="http://www.w3.org/2000/svg">
<path d="M40.2108 3.00123C37.1833 1.61209 33.9367 0.588636 30.5423 0.00245894C30.4805 -0.00885409 30.4187 0.0194178 30.3869 0.0759628C29.9694 0.818576 29.5069 1.78738 29.183 2.54885C25.5321 2.00226 21.8998 2.00226 18.3238 2.54885C17.9998 1.77045 17.5205 0.818576 17.1011 0.0759628C17.0693 0.0213044 17.0075 -0.00696747 16.9457 0.00245894C13.5532 0.586762 10.3066 1.61022 7.27727 3.00123C7.25104 3.01254 7.22856 3.03141 7.21364 3.05589C1.05567 12.2558 -0.631256 21.2295 0.196294 30.092C0.200038 30.1354 0.224378 30.1769 0.258079 30.2032C4.32093 33.1869 8.2565 34.9982 12.119 36.1989C12.1808 36.2177 12.2463 36.1951 12.2856 36.1442C13.1993 34.8965 14.0138 33.5809 14.7121 32.1973C14.7533 32.1163 14.714 32.0202 14.6297 31.9881C13.3379 31.4981 12.1078 30.9006 10.9245 30.2221C10.8309 30.1674 10.8234 30.0336 10.9095 29.9695C11.1585 29.7829 11.4076 29.5887 11.6453 29.3927C11.6883 29.3569 11.7483 29.3494 11.7989 29.372C19.5725 32.9212 27.9885 32.9212 35.6704 29.372C35.721 29.3475 35.7809 29.355 35.8258 29.3908C36.0637 29.5869 36.3127 29.7829 36.5636 29.9695C36.6497 30.0336 36.644 30.1674 36.5504 30.2221C35.3672 30.9138 34.137 31.4981 32.8433 31.9863C32.7591 32.0183 32.7216 32.1163 32.7628 32.1973C33.4761 33.5789 34.2906 34.8945 35.1874 36.1423C35.2249 36.1951 35.2922 36.2177 35.3541 36.1989C39.2353 34.9982 43.1708 33.1869 47.2337 30.2032C47.2693 30.1769 47.2917 30.1372 47.2955 30.0939C48.2859 19.8479 45.6366 10.9477 40.2725 3.05777C40.2594 3.03141 40.237 3.01254 40.2108 3.00123ZM15.873 24.6957C13.5325 24.6957 11.6041 22.547 11.6041 19.9082C11.6041 17.2694 13.4952 15.1208 15.873 15.1208C18.2694 15.1208 20.1792 17.2883 20.1417 19.9082C20.1417 22.547 18.2507 24.6957 15.873 24.6957ZM31.6563 24.6957C29.3159 24.6957 27.3875 22.547 27.3875 19.9082C27.3875 17.2694 29.2785 15.1208 31.6563 15.1208C34.0528 15.1208 35.9625 17.2883 35.9251 19.9082C35.9251 22.547 34.0528 24.6957 31.6563 24.6957Z" fill="#B40041"/>
</svg>
