<svg width="42" height="32" viewBox="0 0 42 32" fill="none" xmlns="http://www.w3.org/2000/svg">
<path fill-rule="evenodd" clip-rule="evenodd" d="M41.7837 1.05662C41.9208 0.942955 42 0.775136 42 0.59825C42 0.267845 41.7291 0 41.3949 0H0.939363C0.420567 0 0 0.415799 0 0.928713C0 1.20481 0.124251 1.46659 0.339043 1.64303L20.0611 17.8439C20.4908 18.197 21.1145 18.1955 21.5426 17.8405L41.7837 1.05662ZM1.89471 6.38799C1.14149 5.76925 0 6.29883 0 7.26701V30.8571C0 31.4883 0.517542 32 1.15596 32H40.844C41.4825 32 42 31.4883 42 30.8571V6.80785C42 5.8372 40.8534 5.30845 40.1012 5.93221L21.674 21.2121L21.5508 21.3142C21.1226 21.6692 20.499 21.6707 20.0692 21.3176L19.9455 21.216L1.89471 6.38799Z" fill="#B40041"/>
</svg>
