<svg width="54" height="80" viewBox="0 0 54 80" fill="none" xmlns="http://www.w3.org/2000/svg">
<path d="M13.3333 80C20.6971 80 26.6667 74.0305 26.6667 66.6667V53.3334H13.3333C5.96953 53.3334 0 59.3029 0 66.6667C0 74.0305 5.96953 80 13.3333 80Z" fill="#91095A"/>
<path d="M0 40C0 32.6362 5.96953 26.6666 13.3333 26.6666H26.6667V53.3333H13.3333C5.96953 53.3333 0 47.3638 0 40Z" fill="#A259FF"/>
<path d="M0 13.3333C0 5.96953 5.96953 0 13.3333 0H26.6667V26.6667H13.3333C5.96953 26.6667 0 20.6971 0 13.3333Z" fill="#D0014C"/>
<path d="M26.6667 0H40.0001C47.3639 0 53.3334 5.96953 53.3334 13.3333C53.3334 20.6971 47.3639 26.6667 40.0001 26.6667H26.6667V0Z" fill="#91095A"/>
<path d="M53.3334 40C53.3334 47.3638 47.3639 53.3333 40.0001 53.3333C32.6363 53.3333 26.6667 47.3638 26.6667 40C26.6667 32.6362 32.6363 26.6666 40.0001 26.6666C47.3639 26.6666 53.3334 32.6362 53.3334 40Z" fill="#D0014C"/>
</svg>
