<svg width="82" height="75" viewBox="0 0 82 75" fill="none" xmlns="http://www.w3.org/2000/svg">
<g clip-path="url(#clip0_507_52)">
<path d="M30.9903 0C41.3204 0 51.6504 2.92969 51.6504 23.4375C51.6504 43.9453 41.3204 46.875 30.9903 46.875C20.6602 46.875 10.3301 43.9453 10.3301 23.4375C10.3301 2.92969 20.6602 0 30.9903 0Z" fill="white"/>
<path d="M52.337 70.9498C52.069 72.5307 53.0004 73.9963 54.4694 74.6467C54.9474 74.8584 55.4824 74.9837 56.0515 74.9985C56.0894 74.9995 56.1275 75 56.1658 75H73.0445C74.9565 75 76.654 74.0505 77.5468 72.611C77.8444 72.1312 78.0526 71.5969 78.1495 71.0253L81.9541 48.5814C82.3151 46.4518 80.4996 44.5312 78.1254 44.5312H61.2467C58.6974 44.5312 56.5293 46.2193 56.1417 48.506L52.337 70.9498Z" fill="white"/>
<path d="M47.7766 51.6106C47.3509 51.5788 46.9202 51.5625 46.4854 51.5625H15.4951C6.93741 51.5625 0 57.8585 0 65.625C0 70.8027 4.62494 75 10.3301 75H45.2041C44.5861 73.4187 44.3754 71.6744 44.6795 69.8806L47.7766 51.6106Z" fill="white"/>
</g>
<defs>
<clipPath id="clip0_507_52">
<rect width="82" height="75" fill="white"/>
</clipPath>
</defs>
</svg>
