<svg width="79" height="82" viewBox="0 0 79 82" fill="none" xmlns="http://www.w3.org/2000/svg">
<path d="M77.5105 37.3477L43.0163 1.54652C41.0316 -0.515508 37.8099 -0.515508 35.8227 1.54652L28.6604 8.98188L37.7456 18.4125C39.8577 17.6722 42.2786 18.1685 43.9614 19.9157C45.6529 21.6737 46.1276 24.208 45.3966 26.4077L54.1531 35.4972C56.2716 34.7394 58.7158 35.229 60.4074 36.988C62.7724 39.4421 62.7724 43.4189 60.4074 45.8737C58.0421 48.3293 54.211 48.3293 51.8444 45.8737C50.0661 44.0264 49.6263 41.3142 50.5269 39.0399L42.3605 30.563L42.3598 52.8698C42.9364 53.1661 43.4805 53.5615 43.961 54.0581C46.3253 56.512 46.3253 60.488 43.961 62.946C41.596 65.3998 37.7632 65.3998 35.4007 62.946C33.0361 60.4882 33.0361 56.5122 35.4007 54.0581C35.9851 53.4526 36.6613 52.9943 37.3828 52.6871V30.173C36.6609 29.8671 35.9856 29.4122 35.4003 28.8018C33.6092 26.944 33.1778 24.2154 34.0964 21.9323L25.1402 12.6341L1.49035 37.1823C-0.496784 39.2459 -0.496784 42.59 1.49035 44.6522L35.9825 80.4535C37.9683 82.5155 41.1889 82.5155 43.1774 80.4535L77.5101 44.8214C79.4966 42.7583 79.4966 39.4132 77.5101 37.3507" fill="#D0014C"/>
</svg>
