<svg width="47" height="46" viewBox="0 0 47 46" fill="none" xmlns="http://www.w3.org/2000/svg">
<path fill-rule="evenodd" clip-rule="evenodd" d="M23.3333 0C10.4417 0 0 10.4417 0 23.3333C0 33.6583 6.67917 42.3792 15.9542 45.4708C17.1208 45.675 17.5583 44.975 17.5583 44.3625C17.5583 43.8083 17.5292 41.9708 17.5292 40.0167C11.6667 41.0958 10.15 38.5875 9.68333 37.275C9.42083 36.6042 8.28333 34.5333 7.29167 33.9792C6.475 33.5417 5.30833 32.4625 7.2625 32.4333C9.1 32.4042 10.4125 34.125 10.85 34.825C12.95 38.3542 16.3042 37.3625 17.6458 36.75C17.85 35.2333 18.4625 34.2125 19.1333 33.6292C13.9417 33.0458 8.51667 31.0333 8.51667 22.1083C8.51667 19.5708 9.42083 17.4708 10.9083 15.8375C10.675 15.2542 9.85833 12.8625 11.1417 9.65417C11.1417 9.65417 13.0958 9.04167 17.5583 12.0458C19.425 11.5208 21.4083 11.2583 23.3917 11.2583C25.375 11.2583 27.3583 11.5208 29.225 12.0458C33.6875 9.0125 35.6417 9.65417 35.6417 9.65417C36.925 12.8625 36.1083 15.2542 35.875 15.8375C37.3625 17.4708 38.2667 19.5417 38.2667 22.1083C38.2667 31.0625 32.8125 33.0458 27.6208 33.6292C28.4667 34.3583 29.1958 35.7583 29.1958 37.9458C29.1958 41.0667 29.1667 43.575 29.1667 44.3625C29.1667 44.975 29.6042 45.7042 30.7708 45.4708C35.4029 43.9071 39.428 40.9301 42.2795 36.9589C45.131 32.9877 46.6654 28.2223 46.6667 23.3333C46.6667 10.4417 36.225 0 23.3333 0Z" fill="#B40041"/>
</svg>
