<svg width="70" height="70" viewBox="0 0 70 70" fill="none" xmlns="http://www.w3.org/2000/svg">
<path d="M0 0V69.3359H69.3359V0H0ZM36.6754 59.0814C35.652 61.161 33.6984 62.5271 31.4347 63.1867C27.9563 63.9854 24.6292 63.53 22.1542 62.0446C20.4979 61.0284 19.2044 59.4642 18.3263 57.662L23.6069 54.4282C23.653 54.4476 23.7917 54.6983 23.9769 55.0222C24.6503 56.1505 25.2311 56.9492 26.3726 57.51C27.4942 57.8927 29.9565 58.1374 30.9072 56.1638C31.4879 55.1598 31.3032 51.9326 31.3032 48.3621C31.3027 42.7514 31.3287 37.1641 31.3287 31.6172H37.8236C37.8236 37.7188 37.8569 43.4975 37.8236 49.4515C37.8375 53.1013 38.1542 56.3551 36.6754 59.0814ZM63.6188 57.2465C61.3612 64.9689 48.7742 65.2196 43.7443 60.1176C42.6815 58.9167 42.0154 58.2893 41.3813 56.9032C44.0544 55.3656 44.0544 55.3656 46.6553 53.8607C48.0681 56.0323 49.3744 57.2266 51.7246 57.7152C54.913 58.1046 58.1207 57.0091 57.4013 53.6227C56.6619 50.8571 50.8726 50.1842 46.9327 47.2266C42.9328 44.5403 41.9954 38.0127 45.2825 34.283C46.378 32.9035 48.2462 31.874 50.2064 31.3792L52.2521 31.1146C56.1799 31.0353 58.6349 32.0726 60.4371 34.085C60.9385 34.5931 61.3479 35.1411 62.1133 36.3287C60.0211 37.6622 60.0277 37.6494 57.0308 39.5897C56.3906 38.2108 55.3284 37.3454 54.2057 36.9694C52.4629 36.4413 50.2652 37.0154 49.8093 38.857C49.6512 39.4244 49.6839 39.9525 49.9352 40.8899C50.6413 42.5002 53.0109 43.2002 55.1365 44.177C61.2553 46.6586 63.3215 49.3195 63.8296 52.4868C64.3188 55.2136 63.7114 56.9825 63.6188 57.2465V57.2465Z" fill="#D0014C"/>
</svg>
