<svg width="38" height="42" viewBox="0 0 38 42" fill="none" xmlns="http://www.w3.org/2000/svg">
<path d="M38 3.03178V38.2004C38 39.0045 37.7056 39.7756 37.1816 40.3442C36.6576 40.9128 35.9469 41.2322 35.2059 41.2322H2.79412C2.05307 41.2322 1.34238 40.9128 0.818378 40.3442C0.294379 39.7756 0 39.0045 0 38.2004L0 3.03178C0 2.2277 0.294379 1.45656 0.818378 0.887987C1.34238 0.319419 2.05307 0 2.79412 0L35.2059 0C35.9469 0 36.6576 0.319419 37.1816 0.887987C37.7056 1.45656 38 2.2277 38 3.03178ZM11.1765 15.7652H5.58824V35.1686H11.1765V15.7652ZM11.6794 9.09534C11.6824 8.63668 11.602 8.18188 11.443 7.75691C11.2839 7.33195 11.0493 6.94513 10.7525 6.61856C10.4556 6.29199 10.1024 6.03205 9.71304 5.85359C9.32364 5.67513 8.90565 5.58165 8.48294 5.57847H8.38235C7.52274 5.57847 6.69833 5.949 6.0905 6.60854C5.48266 7.26808 5.14118 8.16261 5.14118 9.09534C5.14118 10.0281 5.48266 10.9226 6.0905 11.5821C6.69833 12.2417 7.52274 12.6122 8.38235 12.6122C8.80509 12.6235 9.22573 12.5443 9.62024 12.3791C10.0148 12.2139 10.3754 11.966 10.6816 11.6496C10.9878 11.3331 11.2335 10.9543 11.4047 10.5347C11.5759 10.1152 11.6693 9.66318 11.6794 9.20448V9.09534ZM32.4118 23.3811C32.4118 17.5479 28.9918 15.2802 25.5941 15.2802C24.4817 15.2197 23.374 15.4768 22.3817 16.0258C21.3894 16.5748 20.5471 17.3965 19.9388 18.409H19.7824V15.7652H14.5294V35.1686H20.1176V24.8485C20.0369 23.7915 20.3437 22.7426 20.9715 21.9297C21.5993 21.1168 22.4974 20.6055 23.4706 20.5069H23.6829C25.46 20.5069 26.7788 21.7197 26.7788 24.7757V35.1686H32.3671L32.4118 23.3811Z" fill="#B40041"/>
</svg>
