<svg width="72" height="67" viewBox="0 0 72 67" fill="none" xmlns="http://www.w3.org/2000/svg">
<g clip-path="url(#clip0_507_53)">
<path fill-rule="evenodd" clip-rule="evenodd" d="M26.2166 16.0947C26.1244 16.0904 26.0319 16.0883 25.9391 16.0883L21.8096 16.0883C19.2217 16.0883 16.7397 16.9917 14.9098 18.5999L4.25989 27.9593C2.7666 29.2717 2.78181 31.4035 4.29371 32.6992C4.94375 33.2564 5.79767 33.5882 6.69855 33.6387C6.77868 33.6432 6.85918 33.6455 6.93994 33.6455L13.3022 34.5486C12.5374 36.6011 12.0521 38.5706 11.8644 40.4094C11.8448 40.6011 11.8284 40.7913 11.8154 40.98L11.8044 41.1501L25.1762 52.9015C26.0135 52.8632 26.8769 52.7809 27.7626 52.6558C29.2169 52.4504 30.7314 52.1294 32.2898 51.6976L33.3174 56.8947C33.3174 57.0886 33.3367 57.2809 33.3743 57.4694C33.5051 58.1256 33.8579 58.737 34.3941 59.2203C35.8686 60.5489 38.2943 60.5623 39.7876 59.25L50.4375 49.8906C52.2675 48.2824 53.2955 46.1013 53.2955 43.8269V40.5454C54.3555 39.7113 55.4048 38.8391 56.4389 37.9303C68.7051 27.1505 75.4132 6.09613 70.2384 1.54839C65.0636 -2.99935 41.1061 2.89587 28.8399 13.6757C27.9331 14.4727 27.0583 15.2799 26.2166 16.0947ZM48.375 27.2188C48.375 30.6878 45.3529 33.5 41.625 33.5C37.8971 33.5 34.875 30.6878 34.875 27.2188C34.875 23.7497 37.8971 20.9375 41.625 20.9375C45.3529 20.9375 48.375 23.7497 48.375 27.2188Z" fill="#F5F5F5"/>
<path d="M5.27279 53.0675C3.88633 52.6147 2.39748 52.5038 0.951302 52.7457C0.690043 52.7983 0.41807 52.7224 0.231059 52.5447C-0.00257738 52.3281 -0.0658778 51.9988 0.0726034 51.7203C1.60673 48.6506 5.67613 42.4778 13.0443 47.4643C13.1221 47.5292 13.1666 47.6218 13.1666 47.719C13.1666 47.8162 13.1221 47.9089 13.0443 47.9737C11.0437 49.4398 9.91242 51.7045 9.99762 54.0728C10.0087 54.3571 10.2539 54.5852 10.5594 54.5956C13.0934 54.6904 15.5255 53.6608 17.1137 51.8208C17.1834 51.7413 17.2879 51.6952 17.3982 51.6952C17.5084 51.6952 17.6129 51.7413 17.6827 51.8208C18.7054 52.9535 21.5216 56.6532 18.4029 60.2255C17.0414 61.7483 15.0906 62.7113 12.9722 62.9064C9.9472 63.208 4.35807 64.1263 2.07489 66.5525C1.88814 66.7584 1.59476 66.8519 1.31156 66.7959C1.02836 66.7398 0.801319 66.5432 0.720827 66.2844C-0.0858536 63.7241 -1.33908 58.0003 5.27279 53.0675Z" fill="#F5F5F5"/>
</g>
<defs>
<clipPath id="clip0_507_53">
<rect width="72" height="67" fill="white"/>
</clipPath>
</defs>
</svg>
