<svg width="85" height="75" viewBox="0 0 85 75" fill="none" xmlns="http://www.w3.org/2000/svg">
<path fill-rule="evenodd" clip-rule="evenodd" d="M6.22911 32.8119C4.39092 34.4575 3.61869 36.0447 3.61869 37.5C3.61869 38.9554 4.39092 40.5426 6.22911 42.1882C8.06711 43.8337 10.8262 45.396 14.3863 46.7441C21.4943 49.4356 31.4335 51.1371 42.5 51.1371C53.5666 51.1371 63.5058 49.4356 70.6138 46.7441C74.1739 45.396 76.933 43.8337 78.771 42.1882C80.6092 40.5426 81.3814 38.9554 81.3814 37.5C81.3814 36.0447 80.6092 34.4575 78.771 32.8119C76.933 31.1664 74.1739 29.6041 70.6138 28.256C63.5058 25.5645 53.5666 23.8629 42.5 23.8629C31.4335 23.8629 21.4943 25.5645 14.3863 28.256C10.8262 29.6041 8.06711 31.1664 6.22911 32.8119ZM13.1229 24.9747C20.7281 22.0949 31.115 20.3506 42.5 20.3506C53.8851 20.3506 64.2719 22.0949 71.8771 24.9747C75.6736 26.4123 78.8679 28.1669 81.1442 30.2047C83.4202 32.2423 84.923 34.7046 84.923 37.5C84.923 40.2955 83.4202 42.7578 81.1442 44.7954C78.8679 46.8332 75.6736 48.5878 71.8771 50.0254C64.2719 52.9052 53.8851 54.6495 42.5 54.6495C31.115 54.6495 20.7281 52.9052 13.1229 50.0254C9.32644 48.5878 6.13213 46.8332 3.85591 44.7954C1.57988 42.7578 0.0770264 40.2955 0.0770264 37.5C0.0770264 34.7046 1.57988 32.2423 3.85591 30.2047C6.13213 28.1669 9.32644 26.4123 13.1229 24.9747Z" fill="#D0014C"/>
<path fill-rule="evenodd" clip-rule="evenodd" d="M28.4585 4.0044C26.1023 3.24847 24.3302 3.37885 23.0593 4.1065C21.7884 4.83416 20.7885 6.291 20.2706 8.69256C19.7527 11.0939 19.7679 14.2447 20.3707 17.9763C21.5744 25.4269 25.0581 34.814 30.5913 44.3186C36.1246 53.8232 42.5801 61.5088 48.4845 66.2678C51.4417 68.6514 54.1856 70.2399 56.5415 70.9957C58.8976 71.7516 60.6698 71.6213 61.9406 70.8936C63.2115 70.1659 64.2114 68.7091 64.7294 66.3075C65.2473 63.9062 65.2321 60.7554 64.6292 57.0238C63.4256 49.5732 59.9419 40.1861 54.4086 30.6815C48.8753 21.1769 42.4198 13.4913 36.5155 8.7323C33.5582 6.34872 30.8144 4.76024 28.4585 4.0044ZM38.7492 6.00664C45.0666 11.0985 51.7833 19.1472 57.4758 28.9253C63.1683 38.7034 66.8385 48.4965 68.1263 56.4681C68.7692 60.4476 68.8341 64.0683 68.1927 67.0422C67.5514 70.0158 66.1526 72.5377 63.7115 73.9354C61.2704 75.3331 58.3687 75.2735 55.4514 74.3375C52.5337 73.4015 49.4044 71.5353 46.2507 68.9935C39.9334 63.9016 33.2167 55.8529 27.5242 46.0748C21.8317 36.2967 18.1615 26.5036 16.8736 18.532C16.2308 14.5525 16.1658 10.9318 16.8072 7.95791C17.4486 4.98432 18.8474 2.46243 21.2885 1.06472C23.7296 -0.332993 26.6312 -0.273416 29.5486 0.662566C32.4662 1.59862 35.5956 3.46477 38.7492 6.00664Z" fill="#D0014C"/>
<path fill-rule="evenodd" clip-rule="evenodd" d="M64.7295 8.69252C64.2115 6.29096 63.2116 4.83413 61.9407 4.10647C60.6699 3.37881 58.8977 3.24843 56.5416 4.00436C54.1857 4.76021 51.4418 6.34868 48.4846 8.73226C42.5802 13.4913 36.1247 21.1769 30.5914 30.6815C25.0582 40.1861 21.5744 49.5732 20.3708 57.0237C19.768 60.7554 19.7527 63.9062 20.2707 66.3075C20.7886 68.7091 21.7885 70.1659 23.0594 70.8936C24.3303 71.6212 26.1024 71.7516 28.4586 70.9957C30.8145 70.2398 33.5583 68.6513 36.5156 66.2678C42.4199 61.5087 48.8754 53.8231 54.4087 44.3186C59.942 34.814 63.4257 25.4268 64.6293 17.9763C65.2322 14.2447 65.2474 11.0938 64.7295 8.69252ZM68.1264 18.5319C66.8386 26.5036 63.1684 36.2966 57.4759 46.0747C51.7834 55.8529 45.0667 63.9015 38.7493 68.9934C35.5957 71.5353 32.4663 73.4014 29.5487 74.3375C26.6313 75.2735 23.7297 75.3331 21.2886 73.9353C18.8475 72.5376 17.4487 70.0157 16.8073 67.0421C16.1659 64.0683 16.2308 60.4475 16.8737 56.4681C18.1616 48.4964 21.8317 38.7034 27.5243 28.9253C33.2168 19.1472 39.9335 11.0985 46.2508 6.0066C49.4044 3.46473 52.5338 1.59859 55.4514 0.662528C58.3688 -0.273453 61.2705 -0.333031 63.7116 1.06468C66.1527 2.46239 67.5515 4.98428 68.1928 7.95788C68.8342 10.9317 68.7693 14.5525 68.1264 18.5319Z" fill="#D0014C"/>
</svg>
