<svg width="160" height="127" viewBox="0 0 160 127" fill="none" xmlns="http://www.w3.org/2000/svg">
<path d="M79.9987 84.6665C78.4411 84.6689 76.9315 84.2383 75.7321 83.4494L35.7321 56.9911C34.3706 56.0929 33.5145 54.8022 33.3519 53.4029C33.1894 52.0037 33.7338 50.6105 34.8654 49.5298C35.997 48.4492 37.6231 47.7696 39.3859 47.6406C41.1488 47.5116 42.904 47.9437 44.2654 48.8419L79.9987 72.5486L115.732 49.6886C116.414 49.249 117.199 48.9208 118.041 48.7227C118.883 48.5246 119.766 48.4606 120.64 48.5344C121.513 48.6082 122.36 48.8182 123.131 49.1525C123.902 49.4868 124.582 49.9388 125.132 50.4824C125.743 51.0264 126.205 51.6648 126.49 52.3573C126.776 53.0498 126.878 53.7817 126.79 54.507C126.702 55.2323 126.427 55.9354 125.981 56.5723C125.535 57.2092 124.928 57.7661 124.199 58.2082L84.1987 83.7669C82.9649 84.4311 81.4861 84.7479 79.9987 84.6665Z" fill="#D0014C"/>
</svg>
