<svg width="73" height="73" viewBox="0 0 73 73" fill="none" xmlns="http://www.w3.org/2000/svg">
<path d="M10.8359 2.28125C10.8359 2.28125 31.9282 2.28125 36.5 2.28125C41.0718 2.28125 41.0978 8.69727 36.5 8.69727C31.9022 8.69727 10.8359 8.69727 10.8359 8.69727C9.65478 8.69727 8.69727 9.65478 8.69727 10.8359V62.1641C8.69727 63.3452 9.65478 64.3027 10.8359 64.3027H62.1641C63.3452 64.3027 64.3027 63.3452 64.3027 62.1641C64.3027 62.1641 64.3027 40.9925 64.3027 36.5006C64.3027 32.0088 70.7188 32.0957 70.7188 36.5006C70.7188 40.9056 70.7188 62.1641 70.7188 62.1641C70.7188 66.8887 66.8887 70.7188 62.1641 70.7188H10.8359C6.11131 70.7188 2.28125 66.8887 2.28125 62.1641V10.8359C2.28125 6.11131 6.11131 2.28125 10.8359 2.28125Z" fill="white"/>
<path fill-rule="evenodd" clip-rule="evenodd" d="M50.0086 12.0578L60.9423 22.9915L60.0807 23.8531L60.0646 23.8695L33.7712 50.1629C33.5782 50.3559 33.3287 50.4824 33.0589 50.5239L22.2818 52.1819C21.4249 52.3137 20.6866 51.5754 20.8184 50.7185L22.4764 39.9414C22.5179 39.6716 22.6443 39.4221 22.8373 39.2291L50.0086 12.0578ZM50.0382 19.8921L53.1082 22.9621L30.8294 45.2409L27.2012 45.7991L27.7594 42.1709L50.0382 19.8921Z" fill="white"/>
<path d="M63.9668 19.967L53.0332 9.0333L58.8778 3.18861C59.379 2.68749 60.1914 2.68749 60.6926 3.18861L69.8115 12.3076C70.3126 12.8087 70.3126 13.6212 69.8115 14.1223L63.9668 19.967Z" fill="white"/>
</svg>
